<?xml version="1.0" encoding="UTF-8"?>
<!DOCTYPE svg PUBLIC "-//W3C//DTD SVG 1.1//EN" "http://www.w3.org/Graphics/SVG/1.1/DTD/svg11.dtd">
<!-- Creator: CorelDRAW -->
<svg xmlns="http://www.w3.org/2000/svg" xml:space="preserve" width="1.66666in" height="1.66666in" style="shape-rendering:geometricPrecision; text-rendering:geometricPrecision; image-rendering:optimizeQuality; fill-rule:evenodd; clip-rule:evenodd"
viewBox="0 0 1.66666 1.66666"
 xmlns:xlink="http://www.w3.org/1999/xlink">
 <defs>
  <style type="text/css">
   <![CDATA[
    .str0 {stroke:white;stroke-width:0.0208346}
    .fil0 {fill:none}
    .fil2 {fill:#0A84FF}
    .fil1 {fill:white;fill-rule:nonzero}
   ]]>
  </style>
 </defs>
 <g id="Layer_x0020_1">
  <metadata id="CorelCorpID_0Corel-Layer"/>
  <g id="_100134336">
   <rect id="_100949288" class="fil0" width="1.66666" height="1.66666"/>
   <rect id="_100950032" class="fil0 str0" x="0.0642244" y="0.0642244" width="1.53821" height="1.53821" rx="0.0324685" ry="0.0324685"/>
   <path id="_100949840" class="fil1" d="M0.540307 0.649791c-0.00164173,-0.0100591 -0.0113071,-0.016622 -0.0205236,-0.0122362 -0.0705315,0.0335787 -0.154256,0.0551969 -0.248949,0.066874l0.0010748 0.0503583 0.0820591 0.000893701c0.0247598,0.000267717 0.0435315,0.0239449 0.0434803,0.047622l-0.00100394 0.47339c-8.26772e-005,0.0402323 -0.00961024,0.0650157 -0.0452953,0.0854606 -0.0136614,0.00782677 -0.039437,0.0120197 -0.0798031,0.0120197l0 0.0815787c0.121362,-0.0132126 0.249933,-0.0132126 0.385709,0l0 -0.0815787c-0.0391339,0 -0.0663228,-0.00420079 -0.0810433,-0.0126339 -0.0360394,-0.0206496 -0.0452677,-0.0437913 -0.0446811,-0.0848465 0.00299213,-0.208969 0.00598425,-0.417933 0.00897638,-0.626902zm0.141563 0.72428c0.0282874,0.00339764 0.0540827,0.00507874 0.0773819,0.00507874 0.139587,0 0.255374,-0.0356378 0.347587,-0.133862 0.0920591,-0.098063 0.138358,-0.23111 0.138358,-0.399051 0,-0.168862 -0.0485118,-0.313791 -0.140571,-0.411236 -0.0922126,-0.0976102 -0.210157,-0.14637 -0.354677,-0.14637 -0.0542323,0 -0.115862,0.00862598 -0.185197,0.0261929l0 0.0804213c-0.028811,-0.0254094 -0.0752165,-0.0408425 -0.108067,-0.0408425 -0.0328465,0 -0.0473071,0.00530315 -0.0680157,0.0147953 -0.00380709,-0.0379409 -0.0112559,-0.0633189 -0.0223622,-0.0759449 -0.0233543,-0.0265551 -0.0585512,-0.039752 -0.104772,-0.039752l-0.0459134 0 0 -0.0412638c0.168606,0.00879921 0.334472,0.00801181 0.498276,0 0.182508,-0.00892913 0.322094,0.0284449 0.417539,0.0699213 0.0952953,0.0414134 0.172126,0.110827 0.230185,0.207693 0.0581102,0.0969528 0.0894173,0.220496 0.0894173,0.347453 0,0.170402 -0.0517677,0.312768 -0.155303,0.427091 -0.116173,0.127575 -0.293358,0.191358 -0.530941,0.191358l-0.0829252 0 0 -0.0816811z"/>
   <circle id="_100948448" class="fil2" cx="0.4589" cy="0.506199" r="0.123262"/>
  </g>
 </g>
</svg>
